<svg width="208" height="100" viewBox="0 0 208 100" fill="none" xmlns="http://www.w3.org/2000/svg">
<g id="Layer_1" clip-path="url(#clip0_9_536)">
<path id="Vector" d="M201.24 1.66005C201.24 1.66005 204.44 2.17005 205.83 3.11005C206.04 4.86005 204.75 5.83005 203.72 6.83005C199.14 11.2301 193.92 14.8101 188.55 18.1601C177.38 25.1101 165.76 31.2401 154.16 37.4301C133.88 48.2501 113.02 57.82 91.8299 66.7001C87.6899 68.4301 83.5499 70.1801 79.2799 71.6201C73.5999 72.1501 68.0199 71.1601 62.4199 70.5501C60.2799 70.3201 58.1399 69.94 56.0199 69.5601C55.0399 69.3801 53.7799 69.4901 53.3799 68.1501C62.8099 63.0901 72.2399 58.0301 81.6699 52.9701C82.9199 51.8001 84.3599 52.4001 85.6999 52.6301C91.2799 53.5701 96.8499 54.5801 102.43 55.4801C103.77 55.7001 105.06 55.7601 106.32 55.0901C117.57 49.1301 128.89 43.3201 140.25 37.4401C134.84 37.2901 129.44 37.3201 124.04 37.2701C121.89 37.2501 119.71 37.5401 117.57 37.0101C116.65 36.4901 116.06 35.8001 116.37 34.6601C135.56 24.7901 154.7 14.8101 174.38 5.93005C178.552 4.02299 182.456 2.51444 186.89 1.07005C191.345 -0.373201 196.966 -0.272933 201.24 1.66005Z" fill="#ECE8FE"/>
<g id="Mask group">
<mask id="mask0_9_536" style="mask-type:alpha" maskUnits="userSpaceOnUse" x="53" y="0" width="153" height="72">
<path id="Vector_2" d="M201.24 1.66005C201.24 1.66005 204.44 2.17005 205.83 3.11005C206.04 4.86005 204.75 5.83005 203.72 6.83005C199.14 11.2301 193.92 14.8101 188.55 18.1601C177.38 25.1101 165.76 31.2401 154.16 37.4301C133.88 48.2501 113.02 57.82 91.8299 66.7001C87.6899 68.4301 83.5499 70.1801 79.2799 71.6201C73.5999 72.1501 68.0199 71.1601 62.4199 70.5501C60.2799 70.3201 58.1399 69.94 56.0199 69.5601C55.0399 69.3801 53.7799 69.4901 53.3799 68.1501C62.8099 63.0901 72.2399 58.0301 81.6699 52.9701C82.9199 51.8001 84.3599 52.4001 85.6999 52.6301C91.2799 53.5701 96.8499 54.5801 102.43 55.4801C103.77 55.7001 105.06 55.7601 106.32 55.0901C117.57 49.1301 128.89 43.3201 140.25 37.4401C134.84 37.2901 129.44 37.3201 124.04 37.2701C121.89 37.2501 119.71 37.5401 117.57 37.0101C116.65 36.4901 116.06 35.8001 116.37 34.6601C135.56 24.7901 154.7 14.8101 174.38 5.93005C178.552 4.02299 182.456 2.51444 186.89 1.07005C191.345 -0.373201 196.966 -0.272933 201.24 1.66005Z" fill="#ECE8FE"/>
</mask>
<g mask="url(#mask0_9_536)">
<g id="Vector 2">
<path d="M195 6L193 2C193 2 191.913 2.68256 191.38 3.5C190.525 4.8079 191.38 7.5 191.38 7.5L195 6Z" fill="#1F163A"/>
<path d="M195.88 5.5L193.5 2L195.38 1L198.38 4L195.88 5.5Z" fill="#1F163A"/>
<path d="M198.88 3.5L200.88 2L197.88 0L195.88 1L198.88 3.5Z" fill="#1F163A"/>
</g>
</g>
</g>
<path id="Vector_3" d="M117.35 36.6H142.38C141.07 37.95 139.9 38.5 138.75 39.1C128.28 44.49 117.74 49.75 107.39 55.36C103.88 57.27 100.79 55.63 97.55 55.31C92.22 54.78 87.06 53.07 81.66 52.95C80.06 51.86 78.03 52.43 76.37 51.59C76.93 49.48 78.88 49.21 80.43 48.28C78.46 49.03 76.52 49.83 74.54 50.53C73.65 50.84 72.82 51.58 71.75 51.09C69.29 50.58 66.83 50.07 64.37 49.56C64.78 47.51 66.85 47.42 67.82 46.46C65.24 47.04 62.74 48.82 59.76 49.19C57.4 48.17 54.75 48.48 52.37 47.57C52.73 45.66 54.59 45.46 56.08 44.23C52.99 46.15 48.58 45.56 47.9 50.2C47.07 50.64 47.37 49.82 47.41 49.66C47.98 47.39 47.01 46.76 44.8 46.44C37.81 45.43 30.86 44.13 23.89 42.94C23.87 42.23 24.4 41.9 24.91 41.68C29.21 39.83 33.2 37.24 37.85 36.21C52.14 36.29 66.43 36.36 80.71 36.46C87.44 36.51 94.16 36.6 100.89 36.67C100.93 37.97 99.6899 38.19 99.02 38.88C98.0099 39.32 98.06 40.53 97.35 41.19C94.59 41.95 93.52 44.2 92.92 46.62C92.45 48.51 93.6899 49.97 95.67 50.31C97.91 50.69 100.1 50.39 102.25 49.68C103.14 49.45 103.98 49.11 104.81 48.72C106.07 48.27 107.37 47.93 108.56 47.3C109.33 47.06 109.52 46.23 110.08 45.77C112.05 45.39 113.5 44.07 115.09 43C116.84 41.86 117.49 40.25 117.15 38.21C117.06 37.66 116.92 37.08 117.38 36.61L117.35 36.6Z" fill="#BDB2EB"/>
<path id="Vector_4" d="M79.8401 70.99C82.1901 69.99 84.5301 68.94 86.9001 67.98C99.6101 62.86 112.11 57.27 124.54 51.51C138.65 44.97 152.43 37.79 166.09 30.39C177.17 24.38 188.28 18.37 198.3 10.62C201.12 8.43999 204.01 6.32 205.82 3.12C207.86 4.26 208.16 6.01 206.57 8.5C204.18 12.24 200.94 15.19 197.54 17.98C196.2 19.08 193.42 21.15 193.42 21.15C193.42 21.15 191.675 22.4025 189.78 23.71C178.61 31.37 166.63 37.63 154.67 43.94C154.46 44.05 154.2 44.08 153.96 44.15C153.27 44.97 152.56 45.73 151.53 46.18C141.71 50.51 132.15 55.39 122.37 59.81C121.06 60.4 119.71 60.69 118.34 61.01C110.16 64.45 102.06 68.07 93.5401 70.61C90.0101 71.45 86.4601 72.09 82.8101 71.85C81.7601 71.78 80.6401 71.93 79.8301 71.01L79.8401 70.99Z" fill="#D4CDF1"/>
<path id="Vector_5" d="M79.8401 70.99C84.4301 71.47 88.9701 70.51 93.5501 70.59C86.9701 73.53 80.0201 75.41 73.1301 77.46C67.5001 79.14 61.7901 80.58 56.0101 81.68C55.1401 81.85 54.1801 81.88 53.4401 82.51C49.3701 84.18 45.0001 84.2 40.7301 84.75C38.0901 85.09 35.4401 84.77 32.8001 84.92C31.8001 84.76 30.8101 84.59 29.8101 84.43C30.0901 83.22 31.2101 83.07 32.0901 82.77C36.5601 81.25 40.9301 79.45 45.4701 78.12C45.8601 78.02 46.2901 78.09 46.7701 77.87C46.0201 78.07 45.3401 78.08 44.6801 78.22C42.2201 78.19 39.7601 78.54 37.3301 77.99C35.7101 76.53 37.3301 76.06 38.1801 75.57C42.6601 72.95 47.2501 70.54 51.8601 68.14C52.3601 68.14 52.8701 68.14 53.3701 68.14C58.2201 69.52 63.2401 69.98 68.2201 70.48C72.0701 70.87 75.9501 71.37 79.8501 70.99H79.8401Z" fill="#A74ED9"/>
<path id="Vector_6" d="M51.8599 68.14C50.7299 70.03 48.6099 70.49 46.8999 71.49C43.7899 73.32 40.5399 74.93 37.3699 76.66C37.1399 76.79 37.0499 77.19 36.8899 77.46C34.6699 78.76 32.4699 78.85 30.2799 77.39C24.6399 71.68 19.0099 65.97 13.3799 60.25C12.6899 59.55 12.0499 58.8 11.3799 58.07C12.7299 56.12 14.8299 55.36 16.9399 54.64C27.9299 60.82 39.3599 65.88 51.8599 68.14Z" fill="#C36FF1"/>
<path id="Vector_7" d="M118.36 60.99C129.36 55.84 140.37 50.7 151.37 45.54C152.26 45.12 153.11 44.6 153.97 44.12C153.86 45.76 155.23 46.92 155.38 48.48C155.59 49.71 154.49 49.67 153.84 49.92C152.62 50.39 151.49 50.99 150.38 51.66C149.65 51.82 148.92 51.94 148.31 52.43C146.96 53.09 145.65 53.8 144.53 54.81C143.97 55.18 143.42 55.58 142.95 56.07C140.47 58.2 139.09 60.96 138.31 64.06C133.12 62.77 127.77 62.47 122.52 61.56C121.14 61.32 119.75 61.17 118.37 60.98L118.36 60.99Z" fill="#BDB2EB"/>
<path id="Vector_8" d="M30.28 77.39C32.48 77.41 34.69 77.44 36.89 77.46C39.71 77.51 42.54 77.5701 45.36 77.6201C45.67 77.8301 46.13 77.95 45.84 78.49C40.5 80.47 35.16 82.4501 29.81 84.4301C22.63 83.7201 15.46 83.0101 8.27999 82.2901C5.74999 82.0401 3.22999 81.74 -0.0100098 81.38C4.76999 79.23 8.64999 76.8901 13.6 77.1901C19.14 77.5301 24.71 77.34 30.27 77.38L30.28 77.39Z" fill="#ECE8FE"/>
<path id="Vector_9" d="M37.8401 36.21C33.1901 38.45 28.5401 40.7 23.8901 42.94C18.5201 42.06 13.1201 41.41 7.83008 40.1C8.60008 37.84 10.5001 36.86 12.5101 36.02C20.9501 36.09 29.4001 36.15 37.8401 36.22V36.21Z" fill="#C36FF1"/>
<path id="Vector_10" d="M120.47 82.3C125.55 80.36 126.35 79.59 128.92 74.15C129.7 76.09 130.41 77.89 131.84 79.31C133.31 80.76 135.12 81.53 137.54 82.35C132.95 83.54 130.15 86.14 129.02 90.52C125.89 84.64 125.79 84.54 120.48 82.3H120.47Z" fill="#ECA127"/>
<path id="Vector_11" d="M149.9 51.58C151.17 49.57 153.74 49.85 155.37 48.49C155.69 48.52 156.01 48.56 156.33 48.59C156.66 49.37 156.12 50.03 156.03 50.75C155.55 54.54 156.76 56.6 160.36 58.01C160.81 58.19 161.34 58.29 161.3 58.96C159.87 60.25 158.34 61.4 156.53 62.13C155.39 62.59 154.43 62.12 153.5 61.55C150.11 59.51 148.37 54.67 149.9 51.57V51.58Z" fill="#FEFDFE"/>
<path id="Vector_12" d="M115.32 43.56C113.57 44.57 112.25 46.48 109.86 46.16C109.3 46.54 108.75 46.37 108.2 46.14C104.67 44.6 102.67 38.81 104.42 35.24C106.15 34.35 107.92 33.54 109.84 33.14C110.39 33.72 110.1 34.37 110 35C109.43 38.83 110.69 41.03 114.27 42.5C114.75 42.7 115.48 42.71 115.31 43.57L115.32 43.56Z" fill="#FEFDFE"/>
<path id="Vector_13" d="M138.3 64.07C137.84 60.22 140.12 57.81 142.78 55.61C143.53 56.14 143.6 57.01 143.81 57.78C144.51 60.29 145.69 62.48 147.69 64.21C148.17 64.62 148.76 65.04 148.46 65.85C146.31 66.52 144.11 66.81 141.87 66.6C140.22 66.44 138.83 65.85 138.3 64.08V64.07Z" fill="#FDFDFD"/>
<path id="Vector_14" d="M32.8101 84.92C36.7701 83.97 40.8601 84.17 44.8801 83.6C47.7301 83.19 50.5301 82.36 53.4501 82.51C53.2601 88.08 53.2601 88.05 47.9601 87.2C42.9201 86.39 37.8601 85.68 32.8101 84.92Z" fill="#EBE7FD"/>
<path id="Vector_15" d="M98.76 38.61C99.47 37.96 100.18 37.31 100.89 36.67C101.52 36.48 102.14 36.28 102.77 36.09C103.28 39.25 103.7 42.41 106.01 44.96C106.88 45.92 108.42 46.18 108.76 47.65C107.59 48.59 106.21 48.98 104.76 49.21C104.26 49.33 103.77 49.32 103.3 49.13C100.17 47.89 97.59 41.89 98.76 38.61Z" fill="#FEFDFE"/>
<path id="Vector_16" d="M144.33 54.54C145.25 53.1 146.66 52.45 148.26 52.11C148.83 52.47 148.93 53.06 148.93 53.64C148.89 57.29 150.62 59.97 153.46 62.07C153.92 62.41 154.42 62.76 154.38 63.45C153.48 63.86 152.58 64.26 151.68 64.67C149.96 65.19 148.53 64.61 147.46 63.31C145.39 60.78 143.04 58.29 144.33 54.54Z" fill="#FDFDFE"/>
<path id="Vector_17" d="M12.5101 36.0099C10.9501 37.3699 9.3901 38.7299 7.8301 40.0899C5.6601 38.8399 4.2501 36.7499 2.3901 35.1499C2.0201 34.8299 1.6201 34.4499 2.0701 33.9099C2.8401 32.9799 3.8401 32.6699 4.9601 33.0899C7.4901 34.0299 10.0001 35.0299 12.5201 36.0099H12.5101Z" fill="#FBFBFB"/>
<path id="Vector_18" d="M74.6799 21.3499C77.6099 20.5599 79.3899 19.0299 80.1599 15.9399C81.3199 18.6499 82.7299 20.7199 86.0699 21.2699C83.1099 22.2899 81.0999 23.6999 80.3299 26.5799C79.4699 23.7499 77.5499 22.2699 74.6799 21.3499Z" fill="#E99F27"/>
<path id="Vector_19" d="M161.3 58.97C156.53 57.58 155.16 55.78 155.29 51.31C155.32 50.22 155.75 49.4 156.33 48.59C158.99 47.4 161.1 48.21 162.8 51.08C164.4 53.77 164.34 57.78 161.3 58.97Z" fill="#D0CAED"/>
<path id="Vector_20" d="M115.32 43.56C109.68 41.51 108.25 38.78 109.85 33.13C112.52 31.47 114.53 32.68 116.36 34.63C116.69 35.29 117.02 35.95 117.35 36.61C118.35 40.36 118.02 41.5 115.32 43.57V43.56Z" fill="#D2CCEF"/>
<path id="Vector_21" d="M74.8401 95.53C72.5501 96.56 71.2501 97.88 70.2701 100.03C69.3901 97.86 68.1301 96.44 65.8701 95.72C67.7601 94.54 69.4101 93.47 70.2001 91.15C71.3001 93.13 72.4501 94.6 74.8401 95.54V95.53Z" fill="#E79D27"/>
<path id="Vector_22" d="M108.76 47.65C104.04 44.85 101.79 40.5 102.77 36.09C103.16 35.5 103.83 35.42 104.43 35.23C103.95 41.2 105.54 44.41 109.87 46.16C110.53 47.42 109.51 47.43 108.76 47.65Z" fill="#C575F1"/>
<path id="Vector_23" d="M154.38 63.4599C150.08 60.8899 147.8 57.2399 148.26 52.1099C148.69 51.5799 149 50.6599 149.9 51.5799C149.57 57.3499 151.63 60.6299 156.53 62.1399C155.93 62.7699 155.2 63.1899 154.38 63.4599Z" fill="#C473F1"/>
<path id="Vector_24" d="M59.75 49.1901C62.61 47.4401 65.78 46.5101 69.52 45.3101C67.89 47.5601 65.73 48.0801 64.36 49.5701C62.79 50.4801 61.23 51.4001 59.6 52.3501C59.26 51.2301 59.59 50.2101 59.75 49.1901Z" fill="#E6E2F9"/>
<path id="Vector_25" d="M144.33 54.54C144.43 58.02 145.73 60.95 148.33 63.31C149.29 64.18 150.38 64.68 151.69 64.67C150.61 65.06 149.54 65.45 148.46 65.84C145.38 63.09 143.08 59.9 142.79 55.6C143.11 54.96 143.59 54.55 144.34 54.53L144.33 54.54Z" fill="#C575F0"/>
<path id="Vector_26" d="M71.7499 51.0999C74.7899 49.8799 77.8299 48.67 80.8599 47.45C79.9099 49.61 77.7099 50.09 76.3599 51.59C74.8099 52.54 73.2499 53.4899 71.3999 54.6199C71.5299 53.2799 71.6399 52.1899 71.7499 51.0999Z" fill="#E8E4FB"/>
<path id="Vector_27" d="M47.8901 50.2C47.3501 47.49 48.6101 46.08 51.1801 45.54C53.1601 45.12 54.8801 43.81 57.2901 43.58C55.9001 45.59 53.7201 46.08 52.3601 47.57C50.8701 48.45 49.3801 49.32 47.8901 50.2Z" fill="#E7E3FA"/>
<path id="Vector_28" d="M16.94 54.63C15.31 56.13 13.18 56.83 11.38 58.06C10.65 57.4 8.98001 56.56 9.74001 55.88C11.11 54.65 12.81 53.28 14.98 53.66C15.67 53.78 16.29 54.29 16.94 54.63Z" fill="#F9F7FA"/>
<path id="Vector_29" d="M148.85 24.31C148.69 24.98 148.45 25.5 147.77 25.56C146.97 25.63 146.5 25.11 146.46 24.42C146.42 23.83 146.85 23.3 147.49 23.24C148.27 23.16 148.6 23.75 148.85 24.31Z" fill="#342B4E"/>
<path id="Vector_30" d="M131.35 31.59C131.93 31.69 132.33 32.06 132.34 32.72C132.34 33.37 131.96 33.86 131.3 33.86C130.57 33.86 130.03 33.45 130.12 32.62C130.19 31.99 130.59 31.59 131.35 31.58V31.59Z" fill="#2A2145"/>
<path id="Vector_31" d="M143.41 25.37C144.07 25.37 144.52 25.69 144.65 26.33C144.78 27.01 144.42 27.45 143.78 27.58C142.98 27.74 142.49 27.3 142.39 26.55C142.3 25.85 142.8 25.54 143.42 25.37H143.41Z" fill="#292044"/>
<path id="Vector_32" d="M168.21 12.79C168.81 12.99 169.32 13.31 169.29 14C169.26 14.66 168.8 15.1 168.16 15.09C167.4 15.08 166.91 14.57 166.99 13.8C167.06 13.16 167.61 12.88 168.21 12.8V12.79Z" fill="#2A2145"/>
<path id="Vector_33" d="M173.36 12.1001C173.17 12.6801 172.79 13.1001 172.14 13.0001C171.42 12.8901 170.99 12.4001 171.13 11.6301C171.24 11.0001 171.67 10.6001 172.33 10.7101C173.06 10.8301 173.45 11.2901 173.35 12.0901L173.36 12.1001Z" fill="#30274A"/>
<path id="Vector_34" d="M151.64 21.14C152.29 21.17 152.73 21.49 152.83 22.14C152.96 22.97 152.43 23.4 151.71 23.45C151.04 23.5 150.64 22.98 150.61 22.35C150.57 21.7 150.99 21.3 151.64 21.14Z" fill="#241B40"/>
<path id="Vector_35" d="M165.18 16.01C165.08 16.59 164.86 17.1 164.15 17.12C163.37 17.15 162.91 16.73 162.9 15.96C162.9 15.26 163.39 14.95 164.03 14.95C164.67 14.95 165.07 15.33 165.18 16V16.01Z" fill="#251C40"/>
<path id="Vector_36" d="M136.41 30.6499C136.43 31.3499 136.05 31.6999 135.36 31.7099C134.7 31.7099 134.22 31.4299 134.24 30.6899C134.26 30.0399 134.56 29.5699 135.28 29.5699C135.98 29.5699 136.32 29.9699 136.41 30.6499Z" fill="#1D1439"/>
<path id="Vector_37" d="M140.51 28.6C140.39 29.31 140.05 29.71 139.33 29.63C138.65 29.56 138.28 29.17 138.33 28.48C138.39 27.78 138.85 27.47 139.51 27.51C140.21 27.55 140.51 27.98 140.51 28.61V28.6Z" fill="#1E1439"/>
<path id="Vector_38" d="M155.74 19.09C156.45 19.07 156.82 19.43 156.89 20.11C156.97 20.83 156.59 21.22 155.91 21.27C155.25 21.32 154.78 21.02 154.75 20.29C154.72 19.61 155.06 19.21 155.74 19.09Z" fill="#1F153A"/>
<path id="Vector_39" d="M161.01 18.0101C160.98 18.6501 160.76 19.1701 160.03 19.2001C159.37 19.2201 158.9 18.8901 158.83 18.2001C158.76 17.5001 159.16 17.1301 159.84 17.0401C160.56 16.9501 160.91 17.3301 161.01 18.0101Z" fill="#1E1439"/>
<path id="Vector_40" d="M177.4 9.80997C177.37 10.49 176.97 10.88 176.34 10.88C175.71 10.88 175.28 10.5 175.26 9.82996C175.25 9.06996 175.61 8.57997 176.43 8.63997C177.11 8.68997 177.37 9.16997 177.4 9.80997Z" fill="#1F163A"/>
<path id="Vector_41" d="M102.43 50.03C100.25 51.33 97.8301 51.24 95.4801 50.97C93.1501 50.71 91.8101 48.9 92.2001 46.6C92.6301 44.03 94.3401 42.18 96.2101 40.52C96.8301 39.97 96.8901 40.94 97.2601 41.13C98.5101 44.37 100.53 47.17 102.43 50.03Z" fill="#FEFDFE"/>
<path id="Vector_42" d="M102.43 50.03C99.65 47.68 97.58 44.91 97.26 41.13C97.45 40.11 97.08 38.75 98.75 38.61C98.75 43.28 100.25 47.09 104.75 49.21C104.1 49.84 103.33 50.13 102.43 50.03Z" fill="#C575F2"/>
<path id="Vector_43" d="M45.8401 78.49C45.6801 78.2 45.5201 77.91 45.3601 77.62C46.0501 77.62 46.7301 77.62 47.5301 77.62C47.0801 78.34 46.4801 78.46 45.8401 78.49Z" fill="#DEC8F7"/>
<path id="Vector_44" d="M162.46 54.37C162.4 55.67 162.14 57.06 160.21 57.11C158.38 57.16 156.45 54.85 156.39 52.54C156.35 50.96 156.88 49.69 158.67 49.57C160.45 49.45 162.4 51.89 162.46 54.36V54.37Z" fill="#232733"/>
<path id="Vector_45" d="M116.48 38.93C116.34 40.26 115.97 41.61 114.08 41.56C112.21 41.51 110.28 38.93 110.4 36.66C110.48 35.23 110.94 34.04 112.67 34.01C114.58 33.98 116.52 36.42 116.48 38.93Z" fill="#232733"/>
</g>
<defs>
<clipPath id="clip0_9_536">
<rect width="208" height="100" fill="white"/>
</clipPath>
</defs>
</svg>
