<svg width="155" height="45" viewBox="0 0 155 45" fill="none" xmlns="http://www.w3.org/2000/svg">
<g clip-path="url(#clip0_9_424)">
<path d="M20.5 41.5L25 36H15.5L38 12L37.8926 12.0051C31.1053 12.3283 24.5512 14.5815 19 18.5L21.5 3.5L17.2678 6.41878C15.2764 7.79212 13.5829 9.55337 12.2886 11.597C10.4671 14.4731 9.5 17.8074 9.5 21.2118V29.5L1 30L20.5 41.5Z" fill="#2E6FFB"/>
</g>
<path d="M55.78 9.94V14.02H60.58V15.88H55.78V20.14H61.18V22H53.5V8.08H61.18V9.94H55.78ZM62.8283 16.44C62.8283 15.3333 63.0549 14.3533 63.5083 13.5C63.9749 12.6467 64.6016 11.9867 65.3883 11.52C66.1883 11.04 67.0683 10.8 68.0283 10.8C68.8949 10.8 69.6483 10.9733 70.2883 11.32C70.9416 11.6533 71.4616 12.0733 71.8483 12.58V10.98H74.1483V22H71.8483V20.36C71.4616 20.88 70.9349 21.3133 70.2683 21.66C69.6016 22.0067 68.8416 22.18 67.9883 22.18C67.0416 22.18 66.1749 21.94 65.3883 21.46C64.6016 20.9667 63.9749 20.2867 63.5083 19.42C63.0549 18.54 62.8283 17.5467 62.8283 16.44ZM71.8483 16.48C71.8483 15.72 71.6883 15.06 71.3683 14.5C71.0616 13.94 70.6549 13.5133 70.1483 13.22C69.6416 12.9267 69.0949 12.78 68.5083 12.78C67.9216 12.78 67.3749 12.9267 66.8683 13.22C66.3616 13.5 65.9483 13.92 65.6283 14.48C65.3216 15.0267 65.1683 15.68 65.1683 16.44C65.1683 17.2 65.3216 17.8667 65.6283 18.44C65.9483 19.0133 66.3616 19.4533 66.8683 19.76C67.3883 20.0533 67.9349 20.2 68.5083 20.2C69.0949 20.2 69.6416 20.0533 70.1483 19.76C70.6549 19.4667 71.0616 19.04 71.3683 18.48C71.6883 17.9067 71.8483 17.24 71.8483 16.48ZM80.743 22.18C79.8763 22.18 79.0963 22.0267 78.403 21.72C77.723 21.4 77.183 20.9733 76.783 20.44C76.383 19.8933 76.1696 19.2867 76.143 18.62H78.503C78.543 19.0867 78.763 19.48 79.163 19.8C79.5763 20.1067 80.0896 20.26 80.703 20.26C81.343 20.26 81.8363 20.14 82.183 19.9C82.543 19.6467 82.723 19.3267 82.723 18.94C82.723 18.5267 82.523 18.22 82.123 18.02C81.7363 17.82 81.1163 17.6 80.263 17.36C79.4363 17.1333 78.763 16.9133 78.243 16.7C77.723 16.4867 77.2696 16.16 76.883 15.72C76.5096 15.28 76.323 14.7 76.323 13.98C76.323 13.3933 76.4963 12.86 76.843 12.38C77.1896 11.8867 77.683 11.5 78.323 11.22C78.9763 10.94 79.723 10.8 80.563 10.8C81.8163 10.8 82.823 11.12 83.583 11.76C84.3563 12.3867 84.7696 13.2467 84.823 14.34H82.543C82.503 13.8467 82.303 13.4533 81.943 13.16C81.583 12.8667 81.0963 12.72 80.483 12.72C79.883 12.72 79.423 12.8333 79.103 13.06C78.783 13.2867 78.623 13.5867 78.623 13.96C78.623 14.2533 78.7296 14.5 78.943 14.7C79.1563 14.9 79.4163 15.06 79.723 15.18C80.0296 15.2867 80.483 15.4267 81.083 15.6C81.883 15.8133 82.5363 16.0333 83.043 16.26C83.563 16.4733 84.0096 16.7933 84.383 17.22C84.7563 17.6467 84.9496 18.2133 84.963 18.92C84.963 19.5467 84.7896 20.1067 84.443 20.6C84.0963 21.0933 83.603 21.48 82.963 21.76C82.3363 22.04 81.5963 22.18 80.743 22.18ZM96.9466 10.98L90.1866 27.18H87.8266L90.0666 21.82L85.7266 10.98H88.2666L91.3666 19.38L94.5866 10.98H96.9466ZM111.243 8.1V9.96H105.343V14.06H109.943V15.92H105.343V22H103.063V8.1H111.243ZM115.235 7.2V22H112.955V7.2H115.235ZM118.989 9.52C118.576 9.52 118.229 9.38 117.949 9.1C117.669 8.82 117.529 8.47333 117.529 8.06C117.529 7.64667 117.669 7.3 117.949 7.02C118.229 6.74 118.576 6.6 118.989 6.6C119.389 6.6 119.729 6.74 120.009 7.02C120.289 7.3 120.429 7.64667 120.429 8.06C120.429 8.47333 120.289 8.82 120.009 9.1C119.729 9.38 119.389 9.52 118.989 9.52ZM120.109 10.98V22H117.829V10.98H120.109ZM127.142 10.8C127.996 10.8 128.749 10.9733 129.402 11.32C130.069 11.6533 130.589 12.0733 130.962 12.58V10.98H133.262V22.18C133.262 23.1933 133.049 24.0933 132.622 24.88C132.196 25.68 131.576 26.3067 130.762 26.76C129.962 27.2133 129.002 27.44 127.882 27.44C126.389 27.44 125.149 27.0867 124.162 26.38C123.176 25.6867 122.616 24.74 122.482 23.54H124.742C124.916 24.1133 125.282 24.5733 125.842 24.92C126.416 25.28 127.096 25.46 127.882 25.46C128.802 25.46 129.542 25.18 130.102 24.62C130.676 24.06 130.962 23.2467 130.962 22.18V20.34C130.576 20.86 130.049 21.3 129.382 21.66C128.729 22.0067 127.982 22.18 127.142 22.18C126.182 22.18 125.302 21.94 124.502 21.46C123.716 20.9667 123.089 20.2867 122.622 19.42C122.169 18.54 121.942 17.5467 121.942 16.44C121.942 15.3333 122.169 14.3533 122.622 13.5C123.089 12.6467 123.716 11.9867 124.502 11.52C125.302 11.04 126.182 10.8 127.142 10.8ZM130.962 16.48C130.962 15.72 130.802 15.06 130.482 14.5C130.176 13.94 129.769 13.5133 129.262 13.22C128.756 12.9267 128.209 12.78 127.622 12.78C127.036 12.78 126.489 12.9267 125.982 13.22C125.476 13.5 125.062 13.92 124.742 14.48C124.436 15.0267 124.282 15.68 124.282 16.44C124.282 17.2 124.436 17.8667 124.742 18.44C125.062 19.0133 125.476 19.4533 125.982 19.76C126.502 20.0533 127.049 20.2 127.622 20.2C128.209 20.2 128.756 20.0533 129.262 19.76C129.769 19.4667 130.176 19.04 130.482 18.48C130.802 17.9067 130.962 17.24 130.962 16.48ZM141.557 10.8C142.397 10.8 143.144 10.98 143.797 11.34C144.464 11.7 144.984 12.2333 145.357 12.94C145.744 13.6467 145.937 14.5 145.937 15.5V22H143.677V15.84C143.677 14.8533 143.43 14.1 142.937 13.58C142.444 13.0467 141.77 12.78 140.917 12.78C140.064 12.78 139.384 13.0467 138.877 13.58C138.384 14.1 138.137 14.8533 138.137 15.84V22H135.857V7.2H138.137V12.26C138.524 11.7933 139.01 11.4333 139.597 11.18C140.197 10.9267 140.85 10.8 141.557 10.8ZM151.105 12.84V18.94C151.105 19.3533 151.199 19.6533 151.385 19.84C151.585 20.0133 151.919 20.1 152.385 20.1H153.785V22H151.985C150.959 22 150.172 21.76 149.625 21.28C149.079 20.8 148.805 20.02 148.805 18.94V12.84H147.505V10.98H148.805V8.24H151.105V10.98H153.785V12.84H151.105Z" fill="white"/>
<path d="M57.24 34.05V34.98H55.39V41H54.25V34.98H52.39V34.05H57.24ZM60.8345 36.29C61.0012 36.01 61.2212 35.7933 61.4945 35.64C61.7745 35.48 62.1045 35.4 62.4845 35.4V36.58H62.1945C61.7479 36.58 61.4079 36.6933 61.1745 36.92C60.9479 37.1467 60.8345 37.54 60.8345 38.1V41H59.6945V35.49H60.8345V36.29ZM64.4524 38.22C64.4524 37.6667 64.5658 37.1767 64.7924 36.75C65.0258 36.3233 65.3391 35.9933 65.7324 35.76C66.1324 35.52 66.5724 35.4 67.0524 35.4C67.4858 35.4 67.8624 35.4867 68.1824 35.66C68.5091 35.8267 68.7691 36.0367 68.9624 36.29V35.49H70.1124V41H68.9624V40.18C68.7691 40.44 68.5058 40.6567 68.1724 40.83C67.8391 41.0033 67.4591 41.09 67.0324 41.09C66.5591 41.09 66.1258 40.97 65.7324 40.73C65.3391 40.4833 65.0258 40.1433 64.7924 39.71C64.5658 39.27 64.4524 38.7733 64.4524 38.22ZM68.9624 38.24C68.9624 37.86 68.8824 37.53 68.7224 37.25C68.5691 36.97 68.3658 36.7567 68.1124 36.61C67.8591 36.4633 67.5858 36.39 67.2924 36.39C66.9991 36.39 66.7258 36.4633 66.4724 36.61C66.2191 36.75 66.0124 36.96 65.8524 37.24C65.6991 37.5133 65.6224 37.84 65.6224 38.22C65.6224 38.6 65.6991 38.9333 65.8524 39.22C66.0124 39.5067 66.2191 39.7267 66.4724 39.88C66.7324 40.0267 67.0058 40.1 67.2924 40.1C67.5858 40.1 67.8591 40.0267 68.1124 39.88C68.3658 39.7333 68.5691 39.52 68.7224 39.24C68.8824 38.9533 68.9624 38.62 68.9624 38.24ZM75.0398 39.98L76.5998 35.49H77.8098L75.7098 41H74.3498L72.2598 35.49H73.4798L75.0398 39.98ZM85.0215 38.11C85.0215 38.3167 85.0082 38.5033 84.9815 38.67H80.7715C80.8048 39.11 80.9682 39.4633 81.2615 39.73C81.5548 39.9967 81.9148 40.13 82.3415 40.13C82.9548 40.13 83.3882 39.8733 83.6415 39.36H84.8715C84.7048 39.8667 84.4015 40.2833 83.9615 40.61C83.5282 40.93 82.9882 41.09 82.3415 41.09C81.8148 41.09 81.3415 40.9733 80.9215 40.74C80.5082 40.5 80.1815 40.1667 79.9415 39.74C79.7082 39.3067 79.5915 38.8067 79.5915 38.24C79.5915 37.6733 79.7048 37.1767 79.9315 36.75C80.1648 36.3167 80.4882 35.9833 80.9015 35.75C81.3215 35.5167 81.8015 35.4 82.3415 35.4C82.8615 35.4 83.3248 35.5133 83.7315 35.74C84.1382 35.9667 84.4548 36.2867 84.6815 36.7C84.9082 37.1067 85.0215 37.5767 85.0215 38.11ZM83.8315 37.75C83.8248 37.33 83.6748 36.9933 83.3815 36.74C83.0882 36.4867 82.7248 36.36 82.2915 36.36C81.8982 36.36 81.5615 36.4867 81.2815 36.74C81.0015 36.9867 80.8348 37.3233 80.7815 37.75H83.8315ZM88.5834 33.6V41H87.4434V33.6H88.5834ZM94.8977 37.51C94.8977 36.83 95.0544 36.22 95.3677 35.68C95.6877 35.14 96.1177 34.72 96.6577 34.42C97.2044 34.1133 97.8011 33.96 98.4477 33.96C99.1877 33.96 99.8444 34.1433 100.418 34.51C100.998 34.87 101.418 35.3833 101.678 36.05H100.308C100.128 35.6833 99.8777 35.41 99.5577 35.23C99.2377 35.05 98.8677 34.96 98.4477 34.96C97.9877 34.96 97.5777 35.0633 97.2177 35.27C96.8577 35.4767 96.5744 35.7733 96.3677 36.16C96.1677 36.5467 96.0677 36.9967 96.0677 37.51C96.0677 38.0233 96.1677 38.4733 96.3677 38.86C96.5744 39.2467 96.8577 39.5467 97.2177 39.76C97.5777 39.9667 97.9877 40.07 98.4477 40.07C98.8677 40.07 99.2377 39.98 99.5577 39.8C99.8777 39.62 100.128 39.3467 100.308 38.98H101.678C101.418 39.6467 100.998 40.16 100.418 40.52C99.8444 40.88 99.1877 41.06 98.4477 41.06C97.7944 41.06 97.1977 40.91 96.6577 40.61C96.1177 40.3033 95.6877 39.88 95.3677 39.34C95.0544 38.8 94.8977 38.19 94.8977 37.51ZM106.702 41.09C106.182 41.09 105.712 40.9733 105.292 40.74C104.872 40.5 104.542 40.1667 104.302 39.74C104.062 39.3067 103.942 38.8067 103.942 38.24C103.942 37.68 104.065 37.1833 104.312 36.75C104.559 36.3167 104.895 35.9833 105.322 35.75C105.749 35.5167 106.225 35.4 106.752 35.4C107.279 35.4 107.755 35.5167 108.182 35.75C108.609 35.9833 108.945 36.3167 109.192 36.75C109.439 37.1833 109.562 37.68 109.562 38.24C109.562 38.8 109.435 39.2967 109.182 39.73C108.929 40.1633 108.582 40.5 108.142 40.74C107.709 40.9733 107.229 41.09 106.702 41.09ZM106.702 40.1C106.995 40.1 107.269 40.03 107.522 39.89C107.782 39.75 107.992 39.54 108.152 39.26C108.312 38.98 108.392 38.64 108.392 38.24C108.392 37.84 108.315 37.5033 108.162 37.23C108.009 36.95 107.805 36.74 107.552 36.6C107.299 36.46 107.025 36.39 106.732 36.39C106.439 36.39 106.165 36.46 105.912 36.6C105.665 36.74 105.469 36.95 105.322 37.23C105.175 37.5033 105.102 37.84 105.102 38.24C105.102 38.8333 105.252 39.2933 105.552 39.62C105.859 39.94 106.242 40.1 106.702 40.1ZM118.659 35.4C119.092 35.4 119.479 35.49 119.819 35.67C120.166 35.85 120.436 36.1167 120.629 36.47C120.829 36.8233 120.929 37.25 120.929 37.75V41H119.799V37.92C119.799 37.4267 119.676 37.05 119.429 36.79C119.182 36.5233 118.846 36.39 118.419 36.39C117.992 36.39 117.652 36.5233 117.399 36.79C117.152 37.05 117.029 37.4267 117.029 37.92V41H115.899V37.92C115.899 37.4267 115.776 37.05 115.529 36.79C115.282 36.5233 114.946 36.39 114.519 36.39C114.092 36.39 113.752 36.5233 113.499 36.79C113.252 37.05 113.129 37.4267 113.129 37.92V41H111.989V35.49H113.129V36.12C113.316 35.8933 113.552 35.7167 113.839 35.59C114.126 35.4633 114.432 35.4 114.759 35.4C115.199 35.4 115.592 35.4933 115.939 35.68C116.286 35.8667 116.552 36.1367 116.739 36.49C116.906 36.1567 117.166 35.8933 117.519 35.7C117.872 35.5 118.252 35.4 118.659 35.4ZM124.82 36.3C125.013 36.0467 125.276 35.8333 125.61 35.66C125.943 35.4867 126.32 35.4 126.74 35.4C127.22 35.4 127.656 35.52 128.05 35.76C128.45 35.9933 128.763 36.3233 128.99 36.75C129.216 37.1767 129.33 37.6667 129.33 38.22C129.33 38.7733 129.216 39.27 128.99 39.71C128.763 40.1433 128.45 40.4833 128.05 40.73C127.656 40.97 127.22 41.09 126.74 41.09C126.32 41.09 125.946 41.0067 125.62 40.84C125.293 40.6667 125.026 40.4533 124.82 40.2V43.62H123.68V35.49H124.82V36.3ZM128.17 38.22C128.17 37.84 128.09 37.5133 127.93 37.24C127.776 36.96 127.57 36.75 127.31 36.61C127.056 36.4633 126.783 36.39 126.49 36.39C126.203 36.39 125.93 36.4633 125.67 36.61C125.416 36.7567 125.21 36.97 125.05 37.25C124.896 37.53 124.82 37.86 124.82 38.24C124.82 38.62 124.896 38.9533 125.05 39.24C125.21 39.52 125.416 39.7333 125.67 39.88C125.93 40.0267 126.203 40.1 126.49 40.1C126.783 40.1 127.056 40.0267 127.31 39.88C127.57 39.7267 127.776 39.5067 127.93 39.22C128.09 38.9333 128.17 38.6 128.17 38.22ZM131.377 38.22C131.377 37.6667 131.49 37.1767 131.717 36.75C131.95 36.3233 132.264 35.9933 132.657 35.76C133.057 35.52 133.497 35.4 133.977 35.4C134.41 35.4 134.787 35.4867 135.107 35.66C135.434 35.8267 135.694 36.0367 135.887 36.29V35.49H137.037V41H135.887V40.18C135.694 40.44 135.43 40.6567 135.097 40.83C134.764 41.0033 134.384 41.09 133.957 41.09C133.484 41.09 133.05 40.97 132.657 40.73C132.264 40.4833 131.95 40.1433 131.717 39.71C131.49 39.27 131.377 38.7733 131.377 38.22ZM135.887 38.24C135.887 37.86 135.807 37.53 135.647 37.25C135.494 36.97 135.29 36.7567 135.037 36.61C134.784 36.4633 134.51 36.39 134.217 36.39C133.924 36.39 133.65 36.4633 133.397 36.61C133.144 36.75 132.937 36.96 132.777 37.24C132.624 37.5133 132.547 37.84 132.547 38.22C132.547 38.6 132.624 38.9333 132.777 39.22C132.937 39.5067 133.144 39.7267 133.397 39.88C133.657 40.0267 133.93 40.1 134.217 40.1C134.51 40.1 134.784 40.0267 135.037 39.88C135.29 39.7333 135.494 39.52 135.647 39.24C135.807 38.9533 135.887 38.62 135.887 38.24ZM142.614 35.4C143.048 35.4 143.434 35.49 143.774 35.67C144.121 35.85 144.391 36.1167 144.584 36.47C144.778 36.8233 144.874 37.25 144.874 37.75V41H143.744V37.92C143.744 37.4267 143.621 37.05 143.374 36.79C143.128 36.5233 142.791 36.39 142.364 36.39C141.938 36.39 141.598 36.5233 141.344 36.79C141.098 37.05 140.974 37.4267 140.974 37.92V41H139.834V35.49H140.974V36.12C141.161 35.8933 141.398 35.7167 141.684 35.59C141.978 35.4633 142.288 35.4 142.614 35.4ZM152.589 35.49L149.209 43.59H148.029L149.149 40.91L146.979 35.49H148.249L149.799 39.69L151.409 35.49H152.589Z" fill="white"/>
<defs>
<clipPath id="clip0_9_424">
<rect width="38" height="38" fill="white" transform="translate(0 3.5)"/>
</clipPath>
</defs>
</svg>
